<?xml version="1.0" encoding="UTF-8"?>
<svg id="Layer_1" data-name="Layer 1" xmlns="http://www.w3.org/2000/svg" viewBox="0 0 148.33 25">
  <defs>
    <style>
      .cls-1 {
        fill: #435ebe;
      }
    </style>
  </defs>
  <path class="cls-1" d="M4.46,24.12c-1.36-.58-2.44-1.42-3.23-2.52S.02,19.22,0,17.72H5.24c.07,1,.42,1.79,1.07,2.38,.64,.58,1.52,.87,2.64,.87s2.04-.27,2.69-.82,.98-1.26,.98-2.15c0-.72-.22-1.32-.66-1.78-.44-.47-1-.83-1.66-1.1-.66-.27-1.58-.56-2.74-.89-1.58-.47-2.87-.93-3.86-1.38-.99-.46-1.84-1.14-2.55-2.06C.42,9.86,.07,8.63,.07,7.1,.07,5.65,.43,4.39,1.15,3.32c.72-1.07,1.74-1.89,3.04-2.46,1.31-.57,2.8-.86,4.47-.86,2.52,0,4.56,.61,6.14,1.83,1.57,1.22,2.44,2.93,2.6,5.12h-5.38c-.05-.84-.4-1.53-1.07-2.08-.66-.55-1.54-.82-2.64-.82-.96,0-1.72,.24-2.29,.73-.57,.49-.86,1.2-.86,2.13,0,.65,.21,1.19,.65,1.63,.43,.43,.97,.78,1.61,1.05,.64,.27,1.54,.58,2.71,.93,1.58,.47,2.88,.93,3.88,1.4,1,.47,1.86,1.17,2.59,2.1,.72,.93,1.08,2.16,1.08,3.67,0,1.31-.34,2.52-1.01,3.64-.68,1.12-1.67,2.01-2.97,2.67-1.31,.66-2.86,1-4.65,1-1.7,0-3.23-.29-4.6-.87Z"/>
  <path class="cls-1" d="M26.81,.35V24.75h-4.89V.35h4.89Z"/>
  <path class="cls-1" d="M48.51,11.57c-.62,1.14-1.59,2.06-2.9,2.76-1.32,.7-2.98,1.05-4.98,1.05h-4.09v9.37h-4.89V.35h8.98c1.89,0,3.5,.33,4.82,.98,1.33,.65,2.32,1.55,2.99,2.69,.66,1.14,1,2.44,1,3.88,0,1.31-.31,2.53-.93,3.67Zm-5.09-1.07c.65-.62,.98-1.49,.98-2.6,0-2.38-1.33-3.57-3.99-3.57h-3.88v7.1h3.88c1.35,0,2.35-.31,3.01-.93Z"/>
  <path class="cls-1" d="M67.86,20.1h-9.72l-1.61,4.65h-5.14L60.16,.31h5.7l8.77,24.44h-5.17l-1.61-4.65Zm-1.33-3.92l-3.53-10.21-3.53,10.21h7.06Z"/>
  <path class="cls-1" d="M98.79,24.75h-4.89l-11.08-16.75V24.75h-4.89V.31h4.89l11.08,16.78V.31h4.89V24.75Z"/>
  <path class="cls-1" d="M118.91,1.85c1.95,1,3.45,2.43,4.51,4.28,1.06,1.85,1.59,4,1.59,6.45s-.53,4.58-1.59,6.41c-1.06,1.83-2.56,3.25-4.51,4.25-1.95,1-4.2,1.5-6.76,1.5h-8.53V.35h8.53c2.56,0,4.82,.5,6.76,1.5Zm-1,16.64c1.4-1.4,2.1-3.37,2.1-5.91s-.7-4.53-2.1-5.96-3.38-2.15-5.94-2.15h-3.46V20.59h3.46c2.56,0,4.55-.7,5.94-2.1Z"/>
  <path class="cls-1" d="M133.51,.35V15.45c0,1.65,.43,2.92,1.29,3.79,.86,.88,2.07,1.31,3.64,1.31s2.81-.44,3.67-1.31c.86-.87,1.29-2.14,1.29-3.79V.35h4.93V15.42c0,2.07-.45,3.83-1.35,5.26s-2.1,2.51-3.6,3.23c-1.5,.72-3.18,1.08-5.02,1.08s-3.47-.36-4.95-1.08-2.65-1.8-3.51-3.23c-.86-1.43-1.29-3.19-1.29-5.26V.35h4.89Z"/>
</svg>