<?xml version="1.0" encoding="UTF-8"?>
<svg id="Layer_1" data-name="Layer 1" xmlns="http://www.w3.org/2000/svg" viewBox="0 0 132.99 23.81">
  <defs>
    <style>
      .cls-1 {
        fill: #e62129;
      }

      .cls-1, .cls-2, .cls-3, .cls-4, .cls-5 {
        fill-rule: evenodd;
      }

      .cls-6 {
        fill: #435ebe;
      }

      .cls-7, .cls-5 {
        fill: #1d1819;
      }

      .cls-2 {
        fill: #f0e702;
      }

      .cls-3 {
        fill: #fefefe;
      }

      .cls-4 {
        fill: #03411a;
        stroke: #332c2b;
        stroke-miterlimit: 22.93;
        stroke-width: .5px;
      }
    </style>
  </defs>
  <g>
    <path class="cls-4" d="M9.3,23.55C4.08,21.92,.63,19.3,.25,14.96V3.59c1.58-.36,2.32-1.54,2.43-3.34H15.91c.11,1.8,.86,2.98,2.43,3.34V14.96c-.38,4.34-3.83,6.96-9.05,8.59Z"/>
    <g>
      <polygon class="cls-5" points="9.77 1.61 11.08 1.68 10.06 2.5 10.4 3.77 9.3 3.06 8.2 3.77 8.54 2.5 7.52 1.68 8.83 1.61 9.3 .39 9.77 1.61"/>
      <polygon class="cls-2" points="9.3 .66 9.7 1.7 10.82 1.76 9.95 2.47 10.24 3.55 9.3 2.94 8.36 3.55 8.65 2.47 7.78 1.76 8.9 1.7 9.3 .66"/>
    </g>
    <path class="cls-5" d="M9.3,3.46c.12,0,.26,.06,.35,.12,.27,.18,.54,.35,.82,.51,.21,.12,.49,.28,.72,.34,.05,.01,.1,.03,.15,.03,.2,.03,.41-.02,.61-.07,.34-.09,.69-.22,1.03-.33,.46-.16,.93-.3,1.41-.4,.31-.07,.67-.14,.99-.14,.33,0,.98,.07,1.09,.46,.09,.32-.49,.61-.73,.71h0s0,0,0,0c-.05,.01-.19,.07-.19,.13,0,.06,.1,.11,.14,.13,.17,.07,.39,.06,.57,.04,.09-.01,.19,0,.28,.02,.14,.04,.3,.12,.34,.27,.02,.07,0,.14-.04,.2-.2,.32-.67,.38-1.02,.41-.36,.03-.85-.08-1.21-.15-.3-.06-.61-.14-.92-.18-.58-.08-1.33,0-1.89,.16-.42,.12-1.24,.22-1.64,.04-.11-.05-.22-.08-.33-.12-.16-.05-.33-.09-.5-.13-.17,.04-.33,.08-.5,.13-.11,.03-.23,.07-.33,.12-.4,.18-1.22,.08-1.64-.04-.56-.16-1.31-.24-1.89-.16-.31,.04-.62,.12-.92,.18-.36,.08-.85,.19-1.21,.15-.35-.03-.81-.09-1.02-.41-.04-.06-.06-.13-.04-.2,.05-.23,.41-.33,.61-.3,.18,.03,.4,.03,.57-.04,.04-.02,.14-.07,.14-.13,0-.07-.14-.12-.19-.13h0s0,0,0,0c-.24-.1-.83-.39-.73-.71,.11-.39,.76-.46,1.09-.46,.32,0,.68,.07,.99,.14,.48,.1,.95,.24,1.41,.4,.34,.11,.68,.24,1.03,.33,.2,.05,.4,.09,.61,.07,.05,0,.1-.02,.15-.03,.23-.07,.51-.23,.72-.34,.28-.16,.55-.33,.82-.51,.09-.06,.24-.13,.35-.12Z"/>
    <path class="cls-3" d="M2.92,4.59s-.74-.31-.66-.57c.08-.26,.53-.37,.97-.37,.45,0,1.33,.18,2.36,.53,1.03,.35,1.42,.5,1.86,.37,.45-.13,1.39-.75,1.57-.87,.18-.12,.29-.1,.29-.1,0,0,.11-.02,.29,.1,.18,.12,1.12,.74,1.57,.87,.45,.13,.83-.02,1.86-.37,1.03-.35,1.91-.53,2.36-.53,.45,0,.9,.11,.97,.37,.08,.26-.66,.57-.66,.57-.53,.15-.26,.65,.58,.53,.19-.03,.58,.11,.45,.31-.13,.21-.4,.31-.93,.36-.52,.05-1.49-.25-2.11-.33-.62-.09-1.4,0-1.94,.16-.55,.16-1.27,.17-1.56,.05s-.87-.26-.87-.26c0,0-.59,.14-.87,.26s-1.01,.11-1.56-.05c-.55-.16-1.32-.25-1.94-.16-.62,.09-1.58,.38-2.11,.33-.52-.05-.8-.15-.93-.36-.13-.21,.26-.34,.45-.31,.84,.12,1.11-.38,.58-.53Z"/>
    <g>
      <g>
        <path class="cls-5" d="M14.28,16.78s0,.02,0,.02c.03,.07,.3,.16,.38,.2l.16,.08-.16,.09c-.47,.26-1,.46-1.54,.49-.45,.03-.9-.05-1.28-.29-.5-.32-.77-.85-.88-1.43h0s0-.01,0-.01c-.07-.89-.08-1.86,.42-2.64,.27-.43,.68-.79,1.06-1.12,.25-.21,.5-.42,.75-.64,.31-.27,.6-.54,.89-.82,1.17-1.14,1.99-2.54,2.59-4.06l.17-.42,.02,.46c.02,.62-.02,1.23-.17,1.83-.04,.17-.09,.33-.14,.5,0,.03-.04,.12-.05,.17,.04-.02,.11-.08,.13-.1,.1-.1,.2-.22,.28-.34,.1-.13,.19-.26,.29-.38l.19-.22-.02,.29c-.03,.48-.14,.93-.31,1.37-.03,.07-.2,.49-.23,.61,.04-.01,.12-.07,.14-.09,.1-.09,.19-.19,.28-.29,.09-.1,.17-.2,.26-.3l.17-.2v.26c-.01,.47-.1,.94-.34,1.36-.07,.12-.15,.23-.23,.33-.01,.02-.05,.06-.08,.1,.13-.04,.39-.18,.46-.21l.2-.09-.07,.2c-.12,.36-.34,.64-.62,.9-.05,.04-.31,.26-.38,.35,.15-.02,.57-.29,.67-.35l.18-.11-.03,.2c-.06,.37-.23,.68-.48,.96-.08,.09-.17,.18-.25,.26-.02,.02-.07,.08-.09,.11,.1,0,.43-.08,.52-.09l.15-.02-.05,.15c-.1,.32-.31,.56-.58,.75-.09,.07-.19,.13-.28,.19-.02,.01-.09,.06-.11,.09,.07,.03,.29,.04,.35,.04h.16s-.09,.15-.09,.15c-.2,.32-.46,.53-.82,.65-.11,.04-.22,.07-.33,.1-.02,0-.11,.03-.13,.05,0,0,0,.01,0,.02,.02,.03,.16,.05,.2,.06,.08,.01,.16,.02,.23,.06l.13,.06-.11,.1c-.15,.13-.32,.23-.51,.3-.24,.09-.48,.14-.72,.19-.06,.01-.32,.06-.36,.11Z"/>
        <path class="cls-2" d="M11.06,15.93c.31,1.67,1.85,2.1,3.56,1.16-.17-.09-.47-.14-.43-.33,.04-.21,1.09-.16,1.63-.64-.16-.08-.52-.03-.49-.24,.03-.21,.8-.04,1.3-.83-.18-.01-.45,0-.45-.12-.04-.21,.75-.35,.98-1.08-.21,.03-.62,.17-.63,.03-.06-.2,.68-.52,.82-1.38-.26,.16-.77,.49-.83,.31-.06-.2,.73-.49,1.01-1.32-.21,.09-.58,.32-.61,.19-.09-.14,.64-.48,.66-1.86-.25,.29-.65,.82-.82,.71-.17-.07,.45-.89,.52-2.08-.26,.31-.67,.98-.87,.83-.09-.11,.42-.87,.36-2.58-.72,1.82-1.62,3.11-2.61,4.09-2.26,2.19-3.33,2.15-3.09,5.15Z"/>
        <path class="cls-5" d="M14.92,12.68s-.05,0-.06-.01c-.01-.02,0-.05,.01-.06,.25-.16,.55-.41,.83-.65,.29-.26,.54-.52,.66-.69,.01-.02,.04-.02,.06-.01,.02,.01,.02,.04,.01,.06-.12,.18-.38,.44-.67,.7-.28,.25-.59,.5-.84,.66Z"/>
        <g>
          <path class="cls-5" d="M14.05,11.76c.06-.03,.15-.09,.19-.12,.04-.04,.09-.08,.12-.13l.22-.38-.05,.44c-.03,.28-.12,.53-.25,.78-.04,.08-.09,.16-.14,.23,0,.01-.02,.03-.04,.06,.11-.02,.33-.16,.39-.19l.17-.11-.03,.2c-.03,.28-.18,.52-.36,.72-.03,.04-.2,.21-.27,.29,.12,0,.35-.05,.43-.07l.21-.07-.09,.2c-.05,.1-.11,.19-.18,.28-.1,.12-.21,.23-.32,.33-.03,.02-.11,.1-.15,.15,.06,.01,.18,0,.22-.01l.22-.04-.12,.18c-.07,.11-.19,.21-.3,.28-.09,.06-.19,.12-.28,.18,0,0-.03,.02-.05,.03,.04,0,.09,0,.11,0h.19s-.1,.15-.1,.15c-.07,.12-.22,.19-.35,.23-.03,.01-.12,.04-.19,.07,.04,0,.08,0,.1,0h.2s-.13,.16-.13,.16c-.14,.16-.33,.23-.53,.27-.04,0-.23,.03-.3,.05,.03,.05,.11,.13,.13,.16,.02,.03,.04,.05,.06,.08l.09,.15h-.17c-.07,0-.13,0-.2-.02-.07,0-.38-.07-.46-.06-.02,.08,.02,.3,.03,.37l.04,.17-.17-.05c-.36-.12-.79-.2-1.1-.41-.43-.3-.55-.79-.58-1.29-.04-.72,.11-1.4,.53-2,.27-.39,.64-.69,1.03-.95h0s0,0,0,0c.84-.43,1.6-.93,2.23-1.63l.15-.16,.02,.22c.03,.31,0,.61-.08,.91-.01,.05-.08,.27-.1,.36Z"/>
          <path class="cls-2" d="M14.14,10.5c.08,.82-.29,1.28-.15,1.36,.06,.04,.35-.12,.46-.3-.07,.73-.55,1.08-.44,1.15,.06,.06,.27-.01,.55-.19-.08,.65-.8,.99-.64,1.11,.08,.04,.38,0,.56-.06-.19,.42-.77,.75-.67,.84,.03,.08,.23,.06,.34,.04-.2,.3-.82,.52-.72,.61,.04,.03,.19,.03,.29,.02-.14,.22-.73,.27-.68,.41,.01,.05,.21,.04,.31,.05-.31,.34-.86,.2-.86,.36,0,.1,.14,.19,.21,.31-.31,0-.71-.15-.74-.04-.04,.04-.03,.27,.02,.45-.81-.27-1.54-.27-1.62-1.61-.07-1.37,.55-2.24,1.52-2.86,.82-.42,1.6-.92,2.25-1.66Z"/>
        </g>
        <path class="cls-5" d="M13.35,16.18s-.03-.03-.03-.05c0-.02,.03-.03,.05-.03,.1,.03,.25,.03,.41,0,.14-.02,.27-.07,.34-.13,.02-.02,.04-.01,.06,0,.02,.02,.01,.04,0,.06-.08,.07-.23,.13-.38,.15-.16,.03-.34,.03-.45-.01Z"/>
        <path class="cls-5" d="M13.88,15.68s-.03-.03-.03-.05c0-.02,.03-.03,.05-.03,.09,.03,.21,.03,.33,.01,.11-.02,.22-.07,.29-.13,.02-.02,.04-.01,.06,0,.02,.02,.01,.04,0,.06-.08,.08-.2,.13-.33,.15-.13,.02-.26,.02-.37-.01Z"/>
        <path class="cls-5" d="M14.48,15.16s-.04-.01-.05-.04c0-.02,.01-.04,.04-.05,.26-.04,.46-.1,.63-.18,.17-.08,.32-.18,.47-.3,.02-.01,.04-.01,.06,0,.01,.02,.01,.04,0,.06-.16,.13-.31,.23-.49,.31-.18,.08-.38,.14-.65,.19Z"/>
        <path class="cls-5" d="M14.8,14.37s-.05,0-.06-.02c-.01-.02,0-.05,.02-.06,.26-.12,.48-.25,.68-.38,.19-.13,.35-.27,.48-.42,.01-.02,.04-.02,.06,0,.02,.01,.02,.04,0,.06-.13,.16-.3,.3-.49,.44-.2,.13-.43,.26-.69,.39Z"/>
        <path class="cls-5" d="M14.94,13.61s-.05,0-.06-.02c-.01-.02,0-.05,.02-.06,.24-.14,.48-.31,.69-.49,.21-.18,.4-.35,.55-.49,.02-.02,.04-.02,.06,0,.02,.02,.02,.04,0,.06-.15,.14-.34,.32-.55,.49-.22,.18-.46,.36-.71,.5Z"/>
        <path class="cls-5" d="M14.86,11.94s-.04,.01-.06,0c-.02-.02-.01-.04,0-.06,.62-.57,1-1.1,1.24-1.44l.02-.03s.04-.02,.06-.01c.02,.01,.02,.04,.01,.06l-.02,.03c-.24,.34-.62,.88-1.25,1.46Z"/>
        <path class="cls-5" d="M14.86,10.88s-.04,.02-.06,0c-.02-.02-.02-.04,0-.06,.3-.35,.54-.65,.73-.9,.19-.26,.32-.47,.42-.65,.01-.02,.04-.03,.06-.02,.02,.01,.03,.04,.02,.06-.1,.18-.24,.4-.42,.65-.19,.26-.42,.56-.73,.91Z"/>
      </g>
      <g>
        <path class="cls-5" d="M4.32,16.78s0,.02,0,.02c-.03,.07-.3,.16-.38,.2l-.16,.08,.16,.09c.47,.26,1,.46,1.54,.49,.45,.03,.9-.05,1.28-.29,.5-.32,.77-.85,.88-1.43h0s0-.01,0-.01c.07-.89,.08-1.86-.42-2.64-.27-.43-.68-.79-1.06-1.12-.25-.21-.5-.42-.75-.64-.31-.27-.6-.54-.89-.82-1.17-1.14-1.99-2.54-2.59-4.06l-.17-.42-.02,.46c-.02,.62,.02,1.23,.17,1.83,.04,.17,.09,.33,.14,.5,0,.03,.04,.12,.05,.17-.04-.02-.11-.08-.13-.1-.1-.1-.2-.22-.28-.34-.1-.13-.19-.26-.29-.38l-.19-.22,.02,.29c.03,.48,.14,.93,.31,1.37,.03,.07,.2,.49,.23,.61-.04-.01-.12-.07-.14-.09-.1-.09-.19-.19-.28-.29-.09-.1-.17-.2-.26-.3l-.17-.2v.26c.01,.47,.1,.94,.34,1.36,.07,.12,.15,.23,.23,.33,.01,.02,.05,.06,.08,.1-.13-.04-.39-.18-.46-.21l-.2-.09,.07,.2c.12,.36,.34,.64,.62,.9,.05,.04,.31,.26,.38,.35-.15-.02-.57-.29-.67-.35l-.18-.11,.03,.2c.06,.37,.23,.68,.48,.96,.08,.09,.17,.18,.25,.26,.02,.02,.07,.08,.09,.11-.1,0-.43-.08-.52-.09l-.15-.02,.05,.15c.1,.32,.31,.56,.58,.75,.09,.07,.19,.13,.28,.19,.02,.01,.09,.06,.11,.09-.07,.03-.29,.04-.35,.04h-.16s.09,.15,.09,.15c.2,.32,.46,.53,.82,.65,.11,.04,.22,.07,.33,.1,.02,0,.11,.03,.13,.05,0,0,0,.01,0,.02-.02,.03-.16,.05-.2,.06-.08,.01-.16,.02-.23,.06l-.13,.06,.11,.1c.15,.13,.32,.23,.51,.3,.24,.09,.48,.14,.72,.19,.06,.01,.32,.06,.36,.11Z"/>
        <path class="cls-2" d="M7.54,15.93c-.31,1.67-1.85,2.1-3.56,1.16,.17-.09,.47-.14,.43-.33-.04-.21-1.09-.16-1.63-.64,.16-.08,.52-.03,.49-.24-.03-.21-.8-.04-1.3-.83,.18-.01,.45,0,.45-.12,.04-.21-.75-.35-.98-1.08,.21,.03,.62,.17,.63,.03,.06-.2-.68-.52-.82-1.38,.26,.16,.77,.49,.83,.31,.06-.2-.73-.49-1.01-1.32,.21,.09,.58,.32,.61,.19,.09-.14-.64-.48-.66-1.86,.25,.29,.65,.82,.82,.71,.17-.07-.45-.89-.52-2.08,.26,.31,.67,.98,.87,.83,.09-.11-.42-.87-.36-2.58,.72,1.82,1.62,3.11,2.61,4.09,2.26,2.19,3.33,2.15,3.09,5.15Z"/>
        <path class="cls-5" d="M3.68,12.68s.05,0,.06-.01c.01-.02,0-.05-.01-.06-.25-.16-.55-.41-.83-.65-.29-.26-.54-.52-.66-.69-.01-.02-.04-.02-.06-.01-.02,.01-.02,.04-.01,.06,.12,.18,.38,.44,.67,.7,.28,.25,.59,.5,.84,.66Z"/>
        <g>
          <path class="cls-5" d="M4.54,11.76c-.06-.03-.15-.09-.19-.12-.04-.04-.09-.08-.12-.13l-.22-.38,.05,.44c.03,.28,.12,.53,.25,.78,.04,.08,.09,.16,.14,.23,0,.01,.02,.03,.04,.06-.11-.02-.33-.16-.39-.19l-.17-.11,.03,.2c.03,.28,.18,.52,.36,.72,.03,.04,.2,.21,.27,.29-.12,0-.35-.05-.43-.07l-.21-.07,.09,.2c.05,.1,.11,.19,.18,.28,.1,.12,.21,.23,.32,.33,.03,.02,.11,.1,.15,.15-.06,.01-.18,0-.22-.01l-.22-.04,.12,.18c.07,.11,.19,.21,.3,.28,.09,.06,.19,.12,.28,.18,0,0,.03,.02,.05,.03-.04,0-.09,0-.11,0h-.19s.1,.15,.1,.15c.07,.12,.22,.19,.35,.23,.03,.01,.12,.04,.19,.07-.04,0-.08,0-.1,0h-.2s.13,.16,.13,.16c.14,.16,.33,.23,.53,.27,.04,0,.23,.03,.3,.05-.03,.05-.11,.13-.13,.16-.02,.03-.04,.05-.06,.08l-.09,.15h.17c.07,0,.13,0,.2-.02,.07,0,.38-.07,.46-.06,.02,.08-.02,.3-.03,.37l-.04,.17,.17-.05c.36-.12,.79-.2,1.1-.41,.43-.3,.55-.79,.58-1.29,.04-.72-.11-1.4-.53-2-.27-.39-.64-.69-1.03-.95h0s0,0,0,0c-.84-.43-1.6-.93-2.23-1.63l-.15-.16-.02,.22c-.03,.31,0,.61,.08,.91,.01,.05,.08,.27,.1,.36Z"/>
          <path class="cls-2" d="M4.46,10.5c-.08,.82,.29,1.28,.15,1.36-.06,.04-.35-.12-.46-.3,.07,.73,.55,1.08,.44,1.15-.06,.06-.27-.01-.55-.19,.08,.65,.8,.99,.64,1.11-.08,.04-.38,0-.56-.06,.19,.42,.77,.75,.67,.84-.03,.08-.23,.06-.34,.04,.2,.3,.82,.52,.72,.61-.04,.03-.19,.03-.29,.02,.14,.22,.73,.27,.68,.41-.01,.05-.21,.04-.31,.05,.31,.34,.86,.2,.86,.36,0,.1-.14,.19-.21,.31,.31,0,.71-.15,.74-.04,.04,.04,.03,.27-.02,.45,.81-.27,1.54-.27,1.62-1.61,.07-1.37-.55-2.24-1.52-2.86-.82-.42-1.6-.92-2.25-1.66Z"/>
        </g>
        <path class="cls-5" d="M5.25,16.18s.03-.03,.03-.05c0-.02-.03-.03-.05-.03-.1,.03-.25,.03-.41,0-.14-.02-.27-.07-.34-.13-.02-.02-.04-.01-.06,0-.02,.02-.01,.04,0,.06,.08,.07,.23,.13,.38,.15,.16,.03,.34,.03,.45-.01Z"/>
        <path class="cls-5" d="M4.72,15.68s.03-.03,.03-.05c0-.02-.03-.03-.05-.03-.09,.03-.21,.03-.33,.01-.11-.02-.22-.07-.29-.13-.02-.02-.04-.01-.06,0-.02,.02-.01,.04,0,.06,.08,.08,.2,.13,.33,.15,.13,.02,.26,.02,.37-.01Z"/>
        <path class="cls-5" d="M4.12,15.16s.04-.01,.05-.04c0-.02-.01-.04-.04-.05-.26-.04-.46-.1-.63-.18-.17-.08-.32-.18-.47-.3-.02-.01-.04-.01-.06,0-.01,.02-.01,.04,0,.06,.16,.13,.31,.23,.49,.31,.18,.08,.38,.14,.65,.19Z"/>
        <path class="cls-5" d="M3.8,14.37s.05,0,.06-.02c.01-.02,0-.05-.02-.06-.26-.12-.48-.25-.68-.38-.19-.13-.35-.27-.48-.42-.01-.02-.04-.02-.06,0-.02,.01-.02,.04,0,.06,.13,.16,.3,.3,.49,.44,.2,.13,.43,.26,.69,.39Z"/>
        <path class="cls-5" d="M3.66,13.61s.05,0,.06-.02c.01-.02,0-.05-.02-.06-.24-.14-.48-.31-.69-.49-.21-.18-.4-.35-.55-.49-.02-.02-.04-.02-.06,0-.02,.02-.02,.04,0,.06,.15,.14,.34,.32,.55,.49,.22,.18,.46,.36,.71,.5Z"/>
        <path class="cls-5" d="M3.73,11.94s.04,.01,.06,0c.02-.02,.01-.04,0-.06-.62-.57-1-1.1-1.24-1.44l-.02-.03s-.04-.02-.06-.01c-.02,.01-.02,.04-.01,.06l.02,.03c.24,.34,.62,.88,1.25,1.46Z"/>
        <path class="cls-5" d="M3.74,10.88s.04,.02,.06,0c.02-.02,.02-.04,0-.06-.3-.35-.54-.65-.73-.9-.19-.26-.32-.47-.42-.65-.01-.02-.04-.03-.06-.02-.02,.01-.03,.04-.02,.06,.1,.18,.24,.4,.42,.65,.19,.26,.42,.56,.73,.91Z"/>
      </g>
    </g>
    <g>
      <path class="cls-5" d="M8.56,12.51c0-.17,0-.34-.01-.51,0-.13-.02-.26-.02-.39,0-.32,.04-.61,.12-.92h0s0-.02,0-.02c.24-.56,.39-1.03,.19-1.65h0c-.05-.18-.12-.37-.14-.56-.04-.32,.05-.62,.15-.92h0s0-.02,0-.02c.26-.47,.13-.9,.12-1.39-.04-.65-.09-1.95,.56-2.34l.12-.07,.07,.12c.19,.31,.19,.9,.21,1.26,0,.21,.02,.44,.06,.65h0s0,.01,0,.01c.03,.29,.11,.57,.16,.86,.05,.34,.06,.67-.05,1-.11,.42-.11,.83,.06,1.23,.1,.18,.17,.37,.2,.58,.04,.3,0,.59-.06,.88-.08,.35-.2,.69-.3,1.03-.17,1.27,.61,2.25,1.8,2.63l.13,.04c.12,.08,.05,.28-.07,.26l-.13-.03c-.56-.12-1.11-.19-1.67-.21,.46,1.6,.09,2.81-1.03,2.93-.96,.06-1.58-.33-1.67-1.31-.07-.88,.72-1.3,1.04-.05,.15,.66,.83,.86,.71-.31l-.04-1.24h-.05c-.27,.03-.54,.07-.82,.1-.19,.02-.41,.04-.6,0-.18-.08-.17-.18-.02-.28,.21-.07,.44-.15,.61-.29,.3-.25,.36-.7,.39-1.06h0Zm1.31,.86c-.45-.62-.62-1.37-.52-2.14v-.04s.02-.04,.02-.04c.14-.44,.41-1.18,.35-1.64-.02-.13-.06-.25-.13-.36v-.02s-.02-.02-.02-.02c-.16-.37-.22-.75-.19-1.13-.09,.33-.05,.43,.07,.84,.24,.75,.1,1.36-.19,2.06-.06,.23-.1,.46-.09,.7,0,.12,.01,.25,.02,.37,.01,.19,.02,.38,.01,.56h0s0,.02,0,.02c-.02,.28-.06,.58-.16,.85,.27-.02,.54-.03,.81-.02Z"/>
      <path class="cls-1" d="M7.61,14c.6,.13,1.68-.42,4.13,.09-1.23-.39-2.08-1.43-1.89-2.8,.34-1.06,.57-1.7,.18-2.39-.17-.38-.21-.82-.07-1.34,.22-.63-.06-1.27-.11-1.81-.11-.62-.01-1.47-.25-1.85-.43,.26-.58,1.02-.49,2.21,0,.48,.16,.96-.14,1.47-.24,.7-.16,.87,0,1.39,.22,.68,.03,1.21-.19,1.75-.22,.83-.07,.95-.08,1.79-.07,1.08-.45,1.27-1.1,1.49h0Zm1.21-.44c.16-.31,.22-.67,.24-1.02h0s0-.02,0-.02c0-.18,0-.37-.01-.55,0-.13-.02-.25-.02-.38,0-.27,.03-.5,.1-.75,.28-.67,.43-1.24,.19-1.97-.16-.52-.19-.6-.01-1.13,.15-.28,.21-.57,.21-.9,0-.24-.04-.49-.05-.73h0s0-.02,0-.02c0-.13-.02-.35-.02-.6,0,.11,.02,.21,.04,.32,.06,.52,.3,1.13,.13,1.63h0s0,.03,0,.03c-.14,.53-.13,1.06,.09,1.57v.02s.02,.01,.02,.01c.07,.13,.12,.26,.14,.41,.07,.49-.21,1.23-.35,1.7v.03s-.01,.03-.01,.03c-.12,.9,.15,1.69,.68,2.28-.41-.02-.81-.01-1.23,.02-.04,0-.08,0-.13,.01Z"/>
    </g>
    <path class="cls-3" d="M6,8.72l.3,.66-1.5,.86-.03-.05,.06-.03s.08-.06,.1-.1c.01-.03,.02-.06,.01-.09,0-.03-.03-.08-.08-.17l-.68-1.17c-.05-.09-.09-.15-.11-.16-.02-.02-.05-.03-.09-.03-.04,0-.08,.01-.13,.04l-.06,.03-.03-.05,.9-.52,.03,.05-.07,.04s-.08,.06-.1,.1c-.01,.03-.02,.06-.01,.09,0,.03,.03,.08,.08,.17l.66,1.14c.05,.09,.09,.15,.12,.17,.02,.02,.05,.03,.09,.02,.03,0,.08-.03,.16-.08l.14-.08c.09-.05,.15-.11,.19-.18,.04-.07,.06-.15,.06-.25,0-.1-.02-.23-.06-.39l.05-.03h0Zm-.39-1.28v.05c.09-.02,.15-.03,.18-.02,.03,0,.06,.03,.08,.05,.02,.02,.05,.09,.08,.21l.27,.97c.05,.16,.11,.29,.19,.37,.08,.08,.19,.14,.32,.17,.1,.02,.23,0,.4-.04,.19-.06,.34-.14,.42-.26,.09-.12,.13-.23,.13-.34,0-.11-.03-.28-.1-.51l-.21-.75c-.02-.08-.03-.14-.03-.17,0-.05,.02-.09,.05-.12,.03-.03,.07-.06,.12-.07h.04s-.01-.06-.01-.06l-.65,.18v.05c.09-.02,.15-.03,.2-.02,.03,0,.06,.03,.09,.06,.03,.03,.06,.09,.08,.18l.23,.81c.06,.21,.08,.36,.07,.46-.01,.09-.05,.18-.1,.24-.06,.07-.14,.12-.24,.15-.09,.03-.17,.03-.24,0-.07-.02-.12-.06-.17-.11-.04-.05-.09-.16-.14-.34l-.27-.97c-.03-.11-.05-.19-.04-.22,0-.03,.02-.06,.04-.08,.02-.02,.07-.05,.14-.07h.05s-.01-.06-.01-.06l-.97,.27h0Zm7.75,.1v.05c-.05,0-.08,0-.11,0-.03,.01-.06,.03-.09,.06,0,.01-.06,.08-.15,.2l-1.05,1.46h-.05s-.1-1.43-.1-1.43l-.88,1.14h-.05s-.16-1.8-.16-1.8c-.02-.18-.03-.29-.05-.33-.02-.04-.05-.07-.11-.1v-.05s.83,.23,.83,.23v.05c-.08-.02-.13-.02-.15,0-.03,.01-.04,.03-.05,.06-.01,.04-.01,.12,0,.26l.1,1.06,.51-.67-.02-.23c-.01-.13-.02-.21-.03-.26-.01-.04-.03-.08-.06-.11-.03-.02-.07-.05-.12-.06v-.05s.92,.26,.92,.26v.05c-.08-.02-.13-.02-.16-.02-.02,0-.04,0-.06,.02-.02,.01-.03,.03-.03,.05,0,.02,0,.1,0,.23l.08,1.03,.55-.76c.06-.08,.09-.13,.11-.16,.02-.03,.03-.06,.04-.09,.01-.04,0-.08-.01-.11-.02-.03-.07-.06-.14-.08v-.05s.5,.14,.5,.14h0Zm.28,.2l-.03,.04c.07,.04,.11,.08,.13,.11,.02,.03,.02,.06,.02,.09,0,.03-.04,.1-.1,.2l-.54,.85c-.09,.14-.14,.27-.15,.38-.01,.11,.02,.23,.09,.35,.05,.09,.15,.18,.29,.27,.17,.11,.33,.16,.48,.15,.15-.01,.26-.06,.35-.13,.08-.07,.19-.21,.32-.41l.42-.66c.05-.07,.08-.12,.11-.14,.04-.03,.08-.05,.12-.05,.04,0,.09,.01,.13,.04l.03,.02,.03-.04-.57-.37-.03,.04c.07,.04,.11,.09,.14,.13,.02,.03,.02,.06,.01,.11,0,.04-.03,.1-.08,.18l-.45,.7c-.12,.18-.22,.3-.29,.36-.08,.05-.16,.08-.25,.08-.09,0-.18-.03-.27-.08-.08-.05-.13-.11-.16-.17-.03-.07-.04-.13-.03-.2,.01-.06,.06-.17,.16-.33l.54-.85c.06-.1,.11-.16,.14-.18,.03-.02,.06-.03,.09-.03,.03,0,.08,.02,.15,.06l.04,.03,.03-.04-.85-.55Z"/>
    <g>
      <circle class="cls-7" cx="9.31" cy="20.8" r=".78"/>
      <path class="cls-3" d="M9.31,20.14c.16,0,.32,.06,.43,.16l-.02,.04c-.06,.11-.09,.24-.09,.36,0,.17,.06,.34,.16,.48l.02,.03c-.12,.15-.3,.24-.51,.24-.36,0-.66-.29-.66-.66s.29-.66,.66-.66Z"/>
      <g>
        <circle class="cls-7" cx="10.4" cy="20.7" r=".78"/>
        <path class="cls-3" d="M9.82,20.4c.09,.11,.14,.25,.14,.4,0,.11-.03,.22-.08,.31-.09-.11-.14-.25-.14-.4,0-.11,.03-.22,.08-.31Z"/>
        <path class="cls-3" d="M10.4,20.05c.36,0,.66,.29,.66,.66s-.29,.66-.66,.66c-.16,0-.32-.06-.43-.16l.02-.04c.06-.11,.09-.24,.09-.36,0-.17-.06-.34-.16-.48l-.02-.03c.12-.15,.3-.24,.51-.24Z"/>
        <path class="cls-3" d="M9.89,21.11c-.09-.11-.14-.25-.14-.4,0-.11,.03-.22,.08-.31,.09,.11,.14,.25,.14,.4,0,.11-.03,.22-.08,.31Z"/>
      </g>
      <g>
        <path class="cls-5" d="M11.39,19.71c.43-.05,.81,.26,.85,.69,.05,.43-.26,.81-.69,.85-.43,.05-.81-.26-.85-.69-.05-.43,.26-.81,.69-.85Z"/>
        <path class="cls-3" d="M10.86,20.24c.1,.1,.16,.23,.18,.39,.01,.11,0,.22-.04,.31-.1-.1-.16-.23-.18-.39-.01-.11,0-.22,.04-.31Z"/>
        <path class="cls-3" d="M11.4,19.83c.36-.04,.68,.22,.72,.58,.04,.36-.22,.68-.58,.72-.16,.02-.32-.03-.45-.11l.02-.04c.05-.12,.06-.25,.05-.37-.02-.17-.09-.33-.21-.46l-.03-.03c.1-.16,.28-.27,.48-.3Z"/>
        <path class="cls-3" d="M11,20.94c-.1-.1-.16-.23-.18-.39-.01-.11,0-.22,.04-.31,.1,.1,.16,.23,.18,.39,.01,.11,0,.22-.04,.31Z"/>
      </g>
      <g>
        <circle class="cls-7" cx="12.41" cy="20.18" r=".78"/>
        <path class="cls-3" d="M11.77,20.03c.11,.08,.2,.21,.24,.35,.03,.11,.03,.22,0,.32-.11-.08-.2-.21-.24-.35-.03-.11-.03-.22,0-.32Z"/>
        <path class="cls-3" d="M12.24,19.54c.35-.09,.71,.11,.8,.46,.09,.35-.11,.71-.46,.8-.16,.04-.32,.02-.46-.04v-.04c.04-.12,.03-.25,0-.37-.05-.17-.14-.31-.28-.42l-.03-.02c.08-.17,.23-.31,.43-.37Z"/>
        <path class="cls-3" d="M12.02,20.7c-.11-.08-.2-.21-.24-.35-.03-.11-.03-.22,0-.32,.11,.08,.2,.21,.24,.35,.03,.11,.03,.22,0,.32Z"/>
      </g>
      <g>
        <path class="cls-5" d="M13.06,19.06c.4-.15,.85,.06,.99,.46,.15,.4-.06,.85-.46,.99-.4,.15-.85-.06-.99-.46-.15-.4,.06-.85,.46-.99Z"/>
        <path class="cls-3" d="M12.68,19.7c.12,.08,.22,.19,.27,.33,.04,.1,.05,.21,.03,.32-.12-.08-.22-.19-.27-.33-.04-.1-.05-.21-.03-.32Z"/>
        <path class="cls-3" d="M13.1,19.17c.34-.12,.72,.05,.84,.39,.12,.34-.05,.72-.39,.84-.15,.06-.32,.05-.46,0v-.04c.02-.13,.01-.25-.03-.37-.06-.16-.17-.3-.32-.39l-.03-.02c.06-.18,.2-.33,.4-.4Z"/>
        <path class="cls-3" d="M12.98,20.34c-.12-.08-.22-.19-.27-.33-.04-.1-.05-.21-.03-.32,.12,.08,.22,.19,.27,.33,.04,.1,.05,.21,.03,.32Z"/>
      </g>
      <g>
        <path class="cls-5" d="M13.83,18.6c.37-.21,.85-.07,1.05,.3,.21,.37,.07,.85-.3,1.05-.37,.21-.85,.07-1.05-.3-.21-.37-.07-.85,.3-1.05Z"/>
        <path class="cls-3" d="M13.54,19.29c.13,.06,.24,.15,.32,.29,.05,.1,.08,.2,.08,.31-.13-.06-.24-.15-.32-.29-.05-.1-.08-.2-.08-.31Z"/>
        <path class="cls-3" d="M13.88,18.7c.32-.17,.72-.06,.89,.26,.17,.32,.06,.72-.26,.89-.14,.08-.31,.1-.45,.07v-.04c0-.13-.04-.25-.1-.36-.08-.15-.21-.27-.37-.34l-.04-.02c.03-.19,.15-.36,.33-.46Z"/>
        <path class="cls-3" d="M13.94,19.88c-.13-.06-.24-.15-.32-.29-.05-.1-.08-.2-.08-.31,.13,.06,.24,.15,.32,.29,.05,.1,.08,.2,.08,.31Z"/>
      </g>
      <g>
        <path class="cls-5" d="M14.59,18.04c.36-.23,.84-.12,1.07,.24,.23,.36,.12,.84-.24,1.07-.36,.23-.84,.12-1.07-.24-.23-.36-.12-.84,.24-1.07Z"/>
        <path class="cls-3" d="M14.35,18.74c.13,.05,.25,.14,.33,.27,.06,.09,.09,.2,.1,.3-.13-.05-.25-.14-.33-.27-.06-.09-.09-.2-.1-.3Z"/>
        <path class="cls-3" d="M14.65,18.14c.31-.19,.71-.1,.91,.2,.19,.31,.1,.71-.2,.91-.14,.09-.3,.12-.45,.1v-.04c-.01-.13-.05-.25-.12-.36-.09-.15-.23-.26-.39-.31h-.04c.02-.2,.13-.38,.3-.49Z"/>
        <path class="cls-3" d="M14.78,19.31c-.13-.05-.25-.14-.33-.27-.06-.09-.09-.2-.1-.3,.13,.05,.25,.14,.33,.27,.06,.09,.09,.2,.1,.3Z"/>
      </g>
      <g>
        <circle class="cls-7" cx="15.63" cy="18.09" r=".78"/>
        <path class="cls-3" d="M14.99,18.22c.14,.03,.26,.11,.36,.23,.07,.09,.11,.19,.13,.29-.14-.03-.26-.11-.36-.23-.07-.09-.11-.19-.13-.29Z"/>
        <path class="cls-3" d="M15.22,17.58c.28-.23,.7-.18,.92,.1,.23,.28,.18,.7-.1,.92-.13,.1-.28,.15-.44,.14v-.04c-.03-.12-.09-.24-.16-.34-.11-.14-.26-.23-.43-.27h-.04c0-.2,.09-.39,.25-.52Z"/>
        <path class="cls-3" d="M15.48,18.73c-.14-.03-.26-.11-.36-.23-.07-.09-.11-.19-.13-.29,.14,.03,.26,.11,.36,.23,.07,.09,.11,.19,.13,.29Z"/>
      </g>
      <g>
        <path class="cls-5" d="M8.19,21.48c.43,0,.78-.35,.78-.78s-.35-.78-.78-.78-.78,.35-.78,.78,.35,.78,.78,.78Z"/>
        <path class="cls-3" d="M8.77,20.4c-.09,.11-.14,.25-.14,.4,0,.11,.03,.22,.08,.31,.09-.11,.14-.25,.14-.4,0-.11-.03-.22-.08-.31Z"/>
        <path class="cls-3" d="M8.19,20.05c-.36,0-.66,.29-.66,.66s.29,.66,.66,.66c.16,0,.32-.06,.43-.16l-.02-.04c-.06-.11-.09-.24-.09-.36,0-.17,.06-.34,.16-.48l.02-.03c-.12-.15-.3-.24-.51-.24Z"/>
        <path class="cls-3" d="M8.71,21.11c.09-.11,.14-.25,.14-.4,0-.11-.03-.22-.08-.31-.09,.11-.14,.25-.14,.4,0,.11,.03,.22,.08,.31Z"/>
      </g>
      <g>
        <path class="cls-5" d="M7.21,19.71c-.43-.05-.81,.26-.85,.69-.05,.43,.26,.81,.69,.85,.43,.05,.81-.26,.85-.69,.05-.43-.26-.81-.69-.85Z"/>
        <path class="cls-3" d="M7.73,20.24c-.1,.1-.16,.23-.18,.39-.01,.11,0,.22,.04,.31,.1-.1,.16-.23,.18-.39,.01-.11,0-.22-.04-.31Z"/>
        <path class="cls-3" d="M7.19,19.83c-.36-.04-.68,.22-.72,.58-.04,.36,.22,.68,.58,.72,.16,.02,.32-.03,.45-.11l-.02-.04c-.05-.12-.06-.25-.05-.37,.02-.17,.09-.33,.21-.46l.03-.03c-.1-.16-.28-.27-.48-.3Z"/>
        <path class="cls-3" d="M7.6,20.94c.1-.1,.16-.23,.18-.39,.01-.11,0-.22-.04-.31-.1,.1-.16,.23-.18,.39-.01,.11,0,.22,.04,.31Z"/>
      </g>
      <g>
        <path class="cls-5" d="M6.39,19.43c-.41-.11-.84,.13-.95,.55-.11,.41,.13,.84,.55,.95,.41,.11,.84-.13,.95-.55,.11-.41-.13-.84-.55-.95Z"/>
        <path class="cls-3" d="M6.83,20.03c-.11,.08-.2,.21-.24,.35-.03,.11-.03,.22,0,.32,.11-.08,.2-.21,.24-.35,.03-.11,.03-.22,0-.32Z"/>
        <path class="cls-3" d="M6.36,19.54c-.35-.09-.71,.11-.8,.46-.09,.35,.11,.71,.46,.8,.16,.04,.32,.02,.46-.04v-.04c-.04-.12-.03-.25,0-.37,.05-.17,.14-.31,.28-.42l.03-.02c-.08-.17-.23-.31-.43-.37Z"/>
        <path class="cls-3" d="M6.58,20.7c.11-.08,.2-.21,.24-.35,.03-.11,.03-.22,0-.32-.11,.08-.2,.21-.24,.35-.03,.11-.03,.22,0,.32Z"/>
      </g>
      <g>
        <path class="cls-5" d="M5.54,19.06c-.4-.15-.85,.06-.99,.46-.15,.4,.06,.85,.46,.99,.4,.15,.85-.06,.99-.46,.15-.4-.06-.85-.46-.99Z"/>
        <path class="cls-3" d="M5.92,19.7c-.12,.08-.22,.19-.27,.33-.04,.1-.05,.21-.03,.32,.12-.08,.22-.19,.27-.33,.04-.1,.05-.21,.03-.32Z"/>
        <path class="cls-3" d="M5.5,19.17c-.34-.12-.72,.05-.84,.39-.12,.34,.05,.72,.39,.84,.15,.06,.32,.05,.46,0v-.04c-.02-.13-.01-.25,.03-.37,.06-.16,.17-.3,.32-.39l.03-.02c-.06-.18-.2-.33-.4-.4Z"/>
        <path class="cls-3" d="M5.62,20.34c.12-.08,.22-.19,.27-.33,.04-.1,.05-.21,.03-.32-.12,.08-.22,.19-.27,.33-.04,.1-.05,.21-.03,.32Z"/>
      </g>
      <g>
        <path class="cls-5" d="M4.77,18.6c-.37-.21-.85-.07-1.05,.3-.21,.37-.07,.85,.3,1.05,.37,.21,.85,.07,1.05-.3,.21-.37,.07-.85-.3-1.05Z"/>
        <path class="cls-3" d="M5.05,19.29c-.13,.06-.24,.15-.32,.29-.05,.1-.08,.2-.08,.31,.13-.06,.24-.15,.32-.29,.05-.1,.08-.2,.08-.31Z"/>
        <path class="cls-3" d="M4.71,18.7c-.32-.17-.72-.06-.89,.26-.17,.32-.06,.72,.26,.89,.14,.08,.31,.1,.45,.07v-.04c0-.13,.04-.25,.1-.36,.08-.15,.21-.27,.37-.34l.04-.02c-.03-.19-.15-.36-.33-.46Z"/>
        <path class="cls-3" d="M4.66,19.88c.13-.06,.24-.15,.32-.29,.05-.1,.08-.2,.08-.31-.13,.06-.24,.15-.32,.29-.05,.1-.08,.2-.08,.31Z"/>
      </g>
      <g>
        <path class="cls-5" d="M4.01,18.04c-.36-.23-.84-.12-1.07,.24-.23,.36-.12,.84,.24,1.07,.36,.23,.84,.12,1.07-.24,.23-.36,.12-.84-.24-1.07Z"/>
        <path class="cls-3" d="M4.25,18.74c-.13,.05-.25,.14-.33,.27-.06,.09-.09,.2-.1,.3,.13-.05,.25-.14,.33-.27,.06-.09,.09-.2,.1-.3Z"/>
        <path class="cls-3" d="M3.95,18.14c-.31-.19-.71-.1-.91,.2-.19,.31-.1,.71,.2,.91,.14,.09,.3,.12,.45,.1v-.04c.01-.13,.05-.25,.12-.36,.09-.15,.23-.26,.39-.31h.04c-.02-.2-.13-.38-.3-.49Z"/>
        <path class="cls-3" d="M3.81,19.31c.13-.05,.25-.14,.33-.27,.06-.09,.09-.2,.1-.3-.13,.05-.25,.14-.33,.27-.06,.09-.09,.2-.1,.3Z"/>
      </g>
      <g>
        <path class="cls-5" d="M3.45,17.49c-.33-.27-.82-.21-1.09,.12-.27,.33-.21,.82,.12,1.09,.33,.27,.82,.21,1.09-.12,.27-.33,.21-.82-.12-1.09Z"/>
        <path class="cls-3" d="M3.61,18.22c-.14,.03-.26,.11-.36,.23-.07,.09-.11,.19-.13,.29,.14-.03,.26-.11,.36-.23,.07-.09,.11-.19,.13-.29Z"/>
        <path class="cls-3" d="M3.38,17.58c-.28-.23-.7-.18-.92,.1-.23,.28-.18,.7,.1,.92,.13,.1,.28,.15,.44,.14v-.04c.03-.12,.09-.24,.16-.34,.11-.14,.26-.23,.43-.27h.04c0-.2-.09-.39-.25-.52Z"/>
        <path class="cls-3" d="M3.12,18.73c.14-.03,.26-.11,.36-.23,.07-.09,.11-.19,.13-.29-.14,.03-.26,.11-.36,.23-.07,.09-.11,.19-.13,.29Z"/>
      </g>
    </g>
  </g>
  <g>
    <path class="cls-6" d="M28.35,1.84c.76,.41,1.35,.98,1.76,1.72,.41,.73,.62,1.56,.62,2.5s-.21,1.76-.62,2.5c-.41,.74-1,1.32-1.76,1.75-.76,.43-1.65,.64-2.67,.64h-4.05V1.22h4.05c1.02,0,1.9,.21,2.67,.62Zm-1.31,5.82c.4-.38,.6-.91,.6-1.61s-.2-1.23-.6-1.61c-.4-.38-.95-.56-1.63-.56h-.73v4.34h.73c.69,0,1.23-.19,1.63-.56Z"/>
    <path class="cls-6" d="M34.88,3.65v1.19h3.02v2.29h-3.02v1.37h3.43v2.43h-6.48V1.22h6.48V3.65h-3.43Z"/>
    <path class="cls-6" d="M40.39,10.21c-.75-.54-1.16-1.34-1.23-2.39h3.24c.05,.56,.29,.84,.74,.84,.16,0,.3-.04,.42-.12,.11-.08,.17-.2,.17-.36,0-.23-.12-.41-.37-.56-.25-.14-.63-.3-1.15-.49-.62-.22-1.14-.43-1.54-.65-.41-.21-.76-.52-1.05-.92-.29-.4-.43-.92-.43-1.55,0-.63,.16-1.17,.49-1.61,.32-.44,.77-.78,1.33-1.01,.56-.23,1.2-.34,1.9-.34,1.19,0,2.13,.27,2.83,.82,.7,.55,1.07,1.32,1.1,2.32h-3.28c0-.27-.08-.47-.21-.59-.13-.12-.28-.18-.47-.18-.13,0-.23,.04-.32,.13-.08,.09-.12,.21-.12,.36,0,.22,.12,.4,.36,.54,.24,.14,.63,.31,1.16,.51,.61,.23,1.12,.45,1.52,.66,.4,.21,.74,.5,1.04,.88,.29,.38,.44,.85,.44,1.41s-.15,1.13-.44,1.6c-.29,.47-.72,.84-1.28,1.1-.56,.27-1.22,.4-1.99,.4-1.16,0-2.12-.27-2.87-.82Z"/>
    <path class="cls-6" d="M54.27,9.47h-3.24l-.48,1.47h-3.2l3.55-9.72h3.51l3.54,9.72h-3.21l-.48-1.47Zm-.74-2.29l-.88-2.7-.88,2.7h1.76Z"/>
    <path class="cls-6" d="M29.16,17.93c-.28,.5-.7,.89-1.26,1.19-.55,.29-1.22,.44-2.01,.44h-1.21v3.09h-3.05V12.93h4.25c1.19,0,2.1,.3,2.74,.91,.64,.6,.95,1.41,.95,2.43,0,.61-.14,1.17-.43,1.67Zm-2.66-1.67c0-.59-.32-.89-.95-.89h-.86v1.78h.86c.63,0,.95-.3,.95-.89Z"/>
    <path class="cls-6" d="M36.77,21.18h-3.24l-.48,1.47h-3.2l3.55-9.72h3.51l3.54,9.72h-3.21l-.48-1.47Zm-.74-2.29l-.88-2.7-.88,2.7h1.76Z"/>
    <path class="cls-6" d="M47.87,13.55c.76,.41,1.35,.98,1.76,1.72,.41,.73,.62,1.56,.62,2.5s-.21,1.76-.62,2.5c-.41,.74-1,1.32-1.76,1.75-.76,.43-1.65,.64-2.67,.64h-4.05V12.93h4.05c1.02,0,1.9,.21,2.67,.62Zm-1.31,5.82c.4-.38,.6-.91,.6-1.61s-.2-1.23-.6-1.61c-.4-.38-.95-.56-1.63-.56h-.73v4.34h.73c.69,0,1.23-.19,1.63-.56Z"/>
    <path class="cls-6" d="M57.57,21.18h-3.24l-.48,1.47h-3.2l3.55-9.72h3.51l3.54,9.72h-3.21l-.48-1.47Zm-.74-2.29l-.88-2.7-.88,2.7h1.76Z"/>
    <path class="cls-6" d="M71.27,22.65h-3.05l-3.22-4.89v4.89h-3.05V12.93h3.05l3.22,4.97v-4.97h3.05v9.72Z"/>
    <path class="cls-6" d="M78.6,16.25c-.12-.19-.29-.34-.51-.45-.22-.11-.49-.16-.8-.16-.59,0-1.04,.19-1.36,.57-.32,.38-.48,.9-.48,1.56,0,.76,.18,1.33,.54,1.7,.36,.38,.91,.56,1.65,.56s1.27-.28,1.7-.85h-2.43v-2.15h4.95v3.05c-.42,.72-1,1.34-1.74,1.86-.74,.52-1.68,.78-2.81,.78-1.01,0-1.88-.21-2.63-.62-.75-.42-1.32-1-1.72-1.75-.4-.75-.6-1.61-.6-2.57s.2-1.82,.6-2.57c.4-.75,.97-1.33,1.71-1.75,.74-.42,1.61-.62,2.61-.62,1.27,0,2.31,.31,3.11,.92,.8,.61,1.27,1.45,1.42,2.5h-3.21Z"/>
    <path class="cls-6" d="M91.17,22.65l-2.83-4.21v4.21h-3.05V12.93h3.05v4.09l2.79-4.09h3.44l-3.35,4.65,3.57,5.06h-3.62Z"/>
    <path class="cls-6" d="M101.88,21.18h-3.24l-.48,1.47h-3.2l3.55-9.72h3.51l3.54,9.72h-3.21l-.48-1.47Zm-.74-2.29l-.88-2.7-.88,2.7h1.76Z"/>
    <path class="cls-6" d="M109.31,20.34h2.94v2.31h-5.98V12.93h3.05v7.41Z"/>
    <path class="cls-6" d="M116.18,12.93v5.48c0,.45,.1,.8,.29,1.06,.2,.26,.51,.39,.95,.39s.76-.13,.97-.39c.21-.26,.32-.62,.32-1.06v-5.48h3.03v5.48c0,.92-.19,1.71-.58,2.37-.38,.65-.91,1.15-1.58,1.48-.67,.33-1.41,.49-2.24,.49s-1.55-.16-2.19-.49c-.64-.33-1.13-.82-1.49-1.47-.36-.65-.54-1.44-.54-2.37v-5.48h3.03Z"/>
    <path class="cls-6" d="M129.3,21.18h-3.24l-.48,1.47h-3.2l3.55-9.72h3.51l3.54,9.72h-3.21l-.48-1.47Zm-.74-2.29l-.88-2.7-.88,2.7h1.76Z"/>
  </g>
</svg>